<svg width="741" height="277" viewBox="0 0 741 277" fill="none" xmlns="http://www.w3.org/2000/svg">
<rect width="741" height="277" fill="#F9E7D6"/>
<g clip-path="url(#clip0_1_2)">
<path d="M132.679 112.33C135.148 109.855 136.673 106.442 136.673 102.672C136.673 95.1201 130.55 88.9971 122.999 88.9971C118.223 88.9971 114.026 91.4486 111.581 95.155C110.93 95.8056 56.4991 162.897 55.9908 163.667C53.522 166.142 51.9971 169.555 51.9971 173.322C51.9971 180.874 58.1199 186.997 65.6717 186.997C70.4467 186.997 74.6438 184.546 77.0894 180.839C77.74 180.189 132.171 113.097 132.679 112.327V112.33Z" fill="#FFA800"/>
<path d="M164.176 144.165C166.651 141.69 168.179 138.272 168.179 134.498C168.179 126.946 162.056 120.823 154.504 120.823C149.729 120.823 145.529 123.275 143.083 126.987C142.427 127.643 113.841 162.883 113.326 163.661C110.852 166.136 109.324 169.555 109.324 173.328C109.324 180.88 115.447 187.003 122.999 187.003C127.774 187.003 131.974 184.551 134.419 180.839C135.076 180.183 163.662 144.944 164.176 144.165Z" fill="#FFA800"/>
<path d="M193.637 105.792C195.36 98.4388 190.796 91.0807 183.443 89.3574C176.09 87.634 168.732 92.198 167.009 99.5513C165.286 106.905 169.849 114.263 177.202 115.986C184.555 117.709 191.913 113.145 193.637 105.792Z" fill="#FFA800"/>
<path d="M70.7227 115.384C77.7417 112.597 81.1719 104.646 78.3844 97.6272C75.5969 90.608 67.6471 87.1775 60.6281 89.9652C53.6091 92.7528 50.1789 100.703 52.9664 107.722C55.7539 114.741 63.7037 118.172 70.7227 115.384Z" fill="#FFA800"/>
</g>
<path d="M230.284 173V103.182H259.125C264.352 103.182 268.864 104.205 272.659 106.25C276.477 108.273 279.42 111.102 281.489 114.739C283.557 118.352 284.591 122.557 284.591 127.352C284.591 132.17 283.534 136.386 281.42 140C279.33 143.591 276.341 146.375 272.455 148.352C268.568 150.33 263.955 151.318 258.614 151.318H240.818V138.023H255.477C258.023 138.023 260.148 137.58 261.852 136.693C263.58 135.807 264.886 134.568 265.773 132.977C266.659 131.364 267.102 129.489 267.102 127.352C267.102 125.193 266.659 123.33 265.773 121.761C264.886 120.17 263.58 118.943 261.852 118.08C260.125 117.216 258 116.784 255.477 116.784H247.159V173H230.284ZM292.909 173V120.636H309.102V130.182H309.648C310.602 126.727 312.159 124.159 314.318 122.477C316.477 120.773 318.989 119.92 321.852 119.92C322.625 119.92 323.42 119.977 324.239 120.091C325.057 120.182 325.818 120.33 326.523 120.534V135.023C325.727 134.75 324.682 134.534 323.386 134.375C322.114 134.216 320.977 134.136 319.977 134.136C318 134.136 316.216 134.58 314.625 135.466C313.057 136.33 311.818 137.545 310.909 139.114C310.023 140.659 309.58 142.477 309.58 144.568V173H292.909ZM355.04 173.989C349.54 173.989 344.813 172.864 340.858 170.614C336.926 168.341 333.892 165.182 331.756 161.136C329.642 157.068 328.585 152.352 328.585 146.989C328.585 141.602 329.642 136.886 331.756 132.841C333.892 128.773 336.926 125.614 340.858 123.364C344.813 121.091 349.54 119.955 355.04 119.955C360.54 119.955 365.256 121.091 369.188 123.364C373.142 125.614 376.176 128.773 378.29 132.841C380.426 136.886 381.494 141.602 381.494 146.989C381.494 152.352 380.426 157.068 378.29 161.136C376.176 165.182 373.142 168.341 369.188 170.614C365.256 172.864 360.54 173.989 355.04 173.989ZM355.142 161.409C357.142 161.409 358.835 160.795 360.222 159.568C361.608 158.341 362.665 156.636 363.392 154.455C364.142 152.273 364.517 149.75 364.517 146.886C364.517 143.977 364.142 141.432 363.392 139.25C362.665 137.068 361.608 135.364 360.222 134.136C358.835 132.909 357.142 132.295 355.142 132.295C353.074 132.295 351.324 132.909 349.892 134.136C348.483 135.364 347.403 137.068 346.653 139.25C345.926 141.432 345.562 143.977 345.562 146.886C345.562 149.75 345.926 152.273 346.653 154.455C347.403 156.636 348.483 158.341 349.892 159.568C351.324 160.795 353.074 161.409 355.142 161.409ZM419.591 120.636V132.909H386.557V120.636H419.591ZM393.477 108.091H410.148V156.534C410.148 157.557 410.307 158.386 410.625 159.023C410.966 159.636 411.455 160.08 412.091 160.352C412.727 160.602 413.489 160.727 414.375 160.727C415.011 160.727 415.682 160.67 416.386 160.557C417.114 160.42 417.659 160.307 418.023 160.216L420.545 172.25C419.75 172.477 418.625 172.761 417.17 173.102C415.739 173.443 414.023 173.659 412.023 173.75C408.114 173.932 404.761 173.477 401.966 172.386C399.193 171.273 397.068 169.545 395.591 167.205C394.136 164.864 393.432 161.92 393.477 158.375V108.091ZM442.858 173.886C439.517 173.886 436.551 173.33 433.96 172.216C431.392 171.08 429.358 169.375 427.858 167.102C426.381 164.807 425.642 161.932 425.642 158.477C425.642 155.568 426.153 153.114 427.176 151.114C428.199 149.114 429.608 147.489 431.403 146.239C433.199 144.989 435.267 144.045 437.608 143.409C439.949 142.75 442.449 142.307 445.108 142.08C448.085 141.807 450.483 141.523 452.301 141.227C454.119 140.909 455.438 140.466 456.256 139.898C457.097 139.307 457.517 138.477 457.517 137.409V137.239C457.517 135.489 456.915 134.136 455.71 133.182C454.506 132.227 452.881 131.75 450.835 131.75C448.631 131.75 446.858 132.227 445.517 133.182C444.176 134.136 443.324 135.455 442.96 137.136L427.585 136.591C428.04 133.409 429.21 130.568 431.097 128.068C433.006 125.545 435.619 123.568 438.938 122.136C442.278 120.682 446.29 119.955 450.972 119.955C454.313 119.955 457.392 120.352 460.21 121.148C463.028 121.92 465.483 123.057 467.574 124.557C469.665 126.034 471.278 127.852 472.415 130.011C473.574 132.17 474.153 134.636 474.153 137.409V173H458.472V165.705H458.062C457.131 167.477 455.938 168.977 454.483 170.205C453.051 171.432 451.358 172.352 449.403 172.966C447.472 173.58 445.29 173.886 442.858 173.886ZM448.006 162.977C449.801 162.977 451.415 162.614 452.847 161.886C454.301 161.159 455.46 160.159 456.324 158.886C457.188 157.591 457.619 156.091 457.619 154.386V149.409C457.142 149.659 456.563 149.886 455.881 150.091C455.222 150.295 454.494 150.489 453.699 150.67C452.903 150.852 452.085 151.011 451.244 151.148C450.403 151.284 449.597 151.409 448.824 151.523C447.256 151.773 445.915 152.159 444.801 152.682C443.71 153.205 442.869 153.886 442.278 154.727C441.71 155.545 441.426 156.523 441.426 157.659C441.426 159.386 442.04 160.705 443.267 161.614C444.517 162.523 446.097 162.977 448.006 162.977ZM530.062 136.625L514.756 137.034C514.597 135.943 514.165 134.977 513.46 134.136C512.756 133.273 511.835 132.602 510.699 132.125C509.585 131.625 508.29 131.375 506.812 131.375C504.881 131.375 503.233 131.761 501.869 132.534C500.528 133.307 499.869 134.352 499.892 135.67C499.869 136.693 500.278 137.58 501.119 138.33C501.983 139.08 503.517 139.682 505.722 140.136L515.812 142.045C521.04 143.045 524.926 144.705 527.472 147.023C530.04 149.341 531.335 152.409 531.358 156.227C531.335 159.818 530.267 162.943 528.153 165.602C526.062 168.261 523.199 170.33 519.562 171.807C515.926 173.261 511.767 173.989 507.085 173.989C499.608 173.989 493.71 172.455 489.392 169.386C485.097 166.295 482.642 162.159 482.028 156.977L498.494 156.568C498.858 158.477 499.801 159.932 501.324 160.932C502.847 161.932 504.79 162.432 507.153 162.432C509.29 162.432 511.028 162.034 512.369 161.239C513.71 160.443 514.392 159.386 514.415 158.068C514.392 156.886 513.869 155.943 512.847 155.239C511.824 154.511 510.222 153.943 508.04 153.534L498.903 151.795C493.653 150.841 489.744 149.08 487.176 146.511C484.608 143.92 483.335 140.625 483.358 136.625C483.335 133.125 484.267 130.136 486.153 127.659C488.04 125.159 490.722 123.25 494.199 121.932C497.676 120.614 501.778 119.955 506.506 119.955C513.597 119.955 519.188 121.443 523.278 124.42C527.369 127.375 529.631 131.443 530.062 136.625ZM554.599 159.261L554.668 139.386H556.986L571.713 120.636H590.599L568.713 147.5H564.315L554.599 159.261ZM539.565 173V103.182H556.236V173H539.565ZM572.088 173L558.384 151.25L569.361 139.42L591.349 173H572.088ZM618.886 173.989C613.409 173.989 608.682 172.909 604.705 170.75C600.75 168.568 597.705 165.466 595.568 161.443C593.455 157.398 592.398 152.591 592.398 147.023C592.398 141.614 593.466 136.886 595.602 132.841C597.739 128.773 600.75 125.614 604.636 123.364C608.523 121.091 613.102 119.955 618.375 119.955C622.102 119.955 625.511 120.534 628.602 121.693C631.693 122.852 634.364 124.568 636.614 126.841C638.864 129.114 640.614 131.92 641.864 135.261C643.114 138.58 643.739 142.386 643.739 146.682V150.841H598.227V141.159H628.227C628.205 139.386 627.784 137.807 626.966 136.42C626.148 135.034 625.023 133.955 623.591 133.182C622.182 132.386 620.557 131.989 618.716 131.989C616.852 131.989 615.182 132.409 613.705 133.25C612.227 134.068 611.057 135.193 610.193 136.625C609.33 138.034 608.875 139.636 608.83 141.432V151.284C608.83 153.42 609.25 155.295 610.091 156.909C610.932 158.5 612.125 159.739 613.67 160.625C615.216 161.511 617.057 161.955 619.193 161.955C620.67 161.955 622.011 161.75 623.216 161.341C624.42 160.932 625.455 160.33 626.318 159.534C627.182 158.739 627.83 157.761 628.261 156.602L643.568 157.045C642.932 160.477 641.534 163.466 639.375 166.011C637.239 168.534 634.432 170.5 630.955 171.909C627.477 173.295 623.455 173.989 618.886 173.989ZM652.253 173V120.636H668.446V130.182H668.991C669.946 126.727 671.503 124.159 673.662 122.477C675.821 120.773 678.332 119.92 681.196 119.92C681.969 119.92 682.764 119.977 683.582 120.091C684.401 120.182 685.162 120.33 685.866 120.534V135.023C685.071 134.75 684.026 134.534 682.73 134.375C681.457 134.216 680.321 134.136 679.321 134.136C677.344 134.136 675.56 134.58 673.969 135.466C672.401 136.33 671.162 137.545 670.253 139.114C669.366 140.659 668.923 142.477 668.923 144.568V173H652.253Z" fill="#FFA800"/>
<defs>
<clipPath id="clip0_1_2">
<rect width="142" height="98" fill="white" transform="translate(52 89)"/>
</clipPath>
</defs>
</svg>
